<svg height="512pt" viewBox="0 0 512 512" width="512pt" xmlns="http://www.w3.org/2000/svg"><path d="m90 455c-8.285156 0-15-6.714844-15-15v-20c0-8.285156 6.714844-15 15-15s15 6.714844 15 15v20c0 8.285156-6.714844 15-15 15zm0 0" fill="#c9001c"/><path d="m210 455c-8.285156 0-15-6.714844-15-15v-20c0-8.285156 6.714844-15 15-15s15 6.714844 15 15v20c0 8.285156-6.714844 15-15 15zm0 0" fill="#9e0016"/><path d="m150 135c-8.285156 0-15-6.714844-15-15v-32.570312c-17.460938-6.191407-30-22.871094-30-42.429688 0-24.8125 20.1875-45 45-45s45 20.1875 45 45c0 8.285156-6.714844 15-15 15s-15-6.714844-15-15c0-8.269531-6.730469-15-15-15s-15 6.730469-15 15 6.730469 15 15 15c8.285156 0 15 6.714844 15 15v45c0 8.285156-6.714844 15-15 15zm0 0" fill="#3f4a4a"/><path d="m165 120v-45c0-8.285156-6.714844-15-15-15v75c8.285156 0 15-6.714844 15-15zm0 0" fill="#323c3c"/><path d="m150 0v30c8.269531 0 15 6.730469 15 15 0 8.285156 6.714844 15 15 15s15-6.714844 15-15c0-24.8125-20.1875-45-45-45zm0 0" fill="#323c3c"/><path d="m255 105h-210c-24.8125 0-45 20.1875-45 45v30c0 8.285156 6.714844 15 15 15h270c8.285156 0 15-6.714844 15-15v-30c0-24.8125-20.1875-45-45-45zm0 0" fill="#e1ebf0"/><path d="m382 512h-202c-24.8125 0-45-20.1875-45-45v-47c0-8.285156 6.714844-15 15-15s15 6.714844 15 15v47c0 8.269531 6.730469 15 15 15h202c8.269531 0 15-6.730469 15-15v-308c0-8.285156 6.714844-15 15-15s15 6.714844 15 15v308c0 24.8125-20.1875 45-45 45zm0 0" fill="#cde1e6"/><path d="m255 105h-105v90h135c8.285156 0 15-6.714844 15-15v-30c0-24.8125-20.1875-45-45-45zm0 0" fill="#cde1e6"/><path d="m285 165h-270c-8.285156 0-15 6.714844-15 15v210c0 24.8125 20.1875 45 45 45h210c24.8125 0 45-20.1875 45-45v-210c0-8.285156-6.714844-15-15-15zm0 0" fill="#fc0023"/><path d="m285 165h-135v270h105c24.8125 0 45-20.1875 45-45v-210c0-8.285156-6.714844-15-15-15zm0 0" fill="#c9001c"/><g fill="#3f4a4a"><path d="m45 375h-30c-8.285156 0-15-6.714844-15-15s6.714844-15 15-15h30c8.285156 0 15 6.714844 15 15s-6.714844 15-15 15zm0 0"/><path d="m45 315h-30c-8.285156 0-15-6.714844-15-15s6.714844-15 15-15h30c8.285156 0 15 6.714844 15 15s-6.714844 15-15 15zm0 0"/><path d="m45 255h-30c-8.285156 0-15-6.714844-15-15s6.714844-15 15-15h30c8.285156 0 15 6.714844 15 15s-6.714844 15-15 15zm0 0"/></g><path d="m412 174c-3.804688 0-7.605469-1.4375-10.523438-4.3125l-72.554687-71.449219c-.027344-.023437-.054687-.054687-.082031-.082031-10.859375-10.855469-16.839844-25.296875-16.839844-40.65625s5.980469-29.800781 16.84375-40.65625c10.859375-10.863281 25.296875-16.84375 40.65625-16.84375s29.796875 5.980469 40.660156 16.84375l1.839844 1.839844 1.839844-1.839844c10.863281-10.863281 25.300781-16.84375 40.660156-16.84375s29.796875 5.980469 40.660156 16.84375c10.859375 10.855469 16.839844 25.296875 16.839844 40.65625s-5.980469 29.800781-16.84375 40.65625c-.023438.027344-.050781.058594-.082031.082031l-72.550781 71.449219c-2.917969 2.875-6.71875 4.3125-10.523438 4.3125zm0 0" fill="#ff6379"/><path d="m495.160156 16.84375c-10.863281-10.863281-25.300781-16.84375-40.660156-16.84375s-29.796875 5.980469-40.660156 16.84375l-1.839844 1.839844v155.316406c3.804688 0 7.605469-1.4375 10.523438-4.3125l72.554687-71.449219c.027344-.023437.054687-.054687.082031-.082031 10.859375-10.855469 16.839844-25.296875 16.839844-40.65625s-5.980469-29.800781-16.839844-40.65625zm0 0" fill="#ff415b"/></svg>