<svg id="Capa_1" enable-background="new 0 0 512 512" height="512" viewBox="0 0 512 512" width="512" xmlns="http://www.w3.org/2000/svg"><path d="m499.91 167.29-155.181-155.18c-7.81-7.81-18.2-12.11-29.24-12.11-11.05 0-21.43 4.3-29.25 12.11l-274.141 274.14c-16.13 16.12-16.13 42.35 0 58.48l155.18 155.17c8.06 8.07 18.65 12.1 29.24 12.1s21.18-4.03 29.24-12.1l274.152-274.13c16.12-16.13 16.12-42.36 0-58.48zm-393.482 182.5c-3.84 0-7.67-1.46-10.6-4.39-5.86-5.86-5.86-15.36 0-21.22l78.08-78.08c5.86-5.86 15.36-5.86 21.22 0s5.86 15.35 0 21.21l-78.09 78.09c-2.93 2.93-6.77 4.39-10.61 4.39zm35.36 35.36c-3.84 0-7.68-1.47-10.61-4.4-5.85-5.85-5.85-15.35 0-21.21l56.88-56.87c5.86-5.86 15.35-5.86 21.21 0s5.86 15.35 0 21.21l-56.87 56.87c-2.93 2.93-6.77 4.4-10.61 4.4zm124.051-47.12-78.08 78.08c-2.93 2.93-6.77 4.39-10.61 4.39s-7.68-1.46-10.61-4.39c-5.86-5.86-5.86-15.36 0-21.21l78.09-78.09c5.86-5.86 15.36-5.86 21.21 0 5.86 5.86 5.86 15.36 0 21.22zm142.37-132.53c-2.72 2.72-6.48 4.4-10.63 4.4l-12.41-.02c-1.7 7.86-4.78 15.49-9.23 22.48l8.82 8.83c5.86 5.86 5.86 15.35 0 21.21-5.85 5.86-15.35 5.86-21.21 0l-8.81-8.81c-6.98 4.45-14.58 7.54-22.43 9.26l.02 12.36c.01 4.15-1.67 7.91-4.39 10.63-2.71 2.71-6.45 4.39-10.58 4.4-8.29.01-15.02-6.69-15.03-14.98l-.02-12.42c-7.89-1.73-15.55-4.84-22.57-9.33l-8.76 8.76c-5.85 5.86-15.35 5.86-21.21 0-5.86-5.85-5.86-15.35 0-21.21l8.75-8.75c-4.5-7.03-7.62-14.69-9.35-22.6l-12.48-.02c-8.28-.01-14.99-6.74-14.98-15.02.02-8.29 6.74-14.99 15.03-14.98l12.42.02c1.72-7.84 4.79-15.43 9.24-22.39l-8.83-8.83c-5.85-5.85-5.85-15.35 0-21.21 5.86-5.86 15.36-5.86 21.22 0l8.82 8.82c6.98-4.45 14.59-7.53 22.44-9.24l-.02-12.48c-.01-8.29 6.69-15.01 14.98-15.03 8.28-.01 15.01 6.69 15.02 14.98l.02 12.56c7.87 1.73 15.51 4.83 22.51 9.31l8.76-8.76c5.86-5.86 15.36-5.86 21.21 0 5.86 5.86 5.86 15.36 0 21.22l-8.75 8.75c4.48 6.99 7.59 14.61 9.33 22.47l12.51.02c8.29.01 14.99 6.74 14.98 15.02-.009 4.13-1.68 7.88-4.39 10.58zm-119.15-38.73c-15.42 15.42-15.37 40.57.12 56.06s40.64 15.54 56.06.12 15.37-40.57-.12-56.06-40.64-15.54-56.06-.12z"/></svg>