<svg id="Capa_1" enable-background="new 0 0 512 512" height="512" viewBox="0 0 512 512" width="512" xmlns="http://www.w3.org/2000/svg"><path d="m499.908 167.289-155.183-155.176c-7.812-7.811-18.196-12.113-29.242-12.113s-21.43 4.302-29.242 12.113l-274.149 274.138c-16.123 16.123-16.123 42.357 0 58.48l155.184 155.178c8.062 8.061 18.651 12.091 29.241 12.091s21.179-4.03 29.242-12.092l274.149-274.139c16.123-16.122 16.123-42.356 0-58.48zm-21.215 37.266-274.149 274.139c-4.425 4.425-11.626 4.427-16.053 0l-155.184-155.177c-4.425-4.426-4.425-11.626 0-16.052l274.149-274.139c2.145-2.144 4.996-3.325 8.027-3.325s5.881 1.181 8.026 3.325l155.183 155.177c4.426 4.426 4.426 11.626.001 16.052z"/><path d="m195.126 246.101c-5.858-5.858-15.357-5.858-21.215 0l-78.088 78.085c-5.859 5.858-5.859 15.356 0 21.214 2.929 2.929 6.768 4.394 10.607 4.394s7.678-1.465 10.607-4.394l78.088-78.085c5.86-5.858 5.86-15.357.001-21.214z"/><path d="m209.269 302.671c-5.858-5.858-15.357-5.858-21.215 0l-56.873 56.871c-5.859 5.858-5.859 15.356 0 21.214 2.929 2.929 6.768 4.394 10.607 4.394s7.678-1.465 10.607-4.394l56.873-56.871c5.86-5.858 5.86-15.356.001-21.214z"/><path d="m244.627 316.814-78.088 78.084c-5.859 5.858-5.859 15.356 0 21.214 2.929 2.93 6.768 4.394 10.607 4.394 3.838 0 7.678-1.465 10.607-4.394l78.088-78.084c5.859-5.858 5.859-15.356 0-21.214-5.857-5.858-15.356-5.858-21.214 0z"/><path d="m363.317 127.445-8.759 8.759c-7.004-4.479-14.637-7.584-22.511-9.315l-.02-12.558c-.013-8.284-6.739-14.99-15.024-14.976-8.284.014-14.991 6.74-14.977 15.025l.02 12.481c-7.852 1.712-15.46 4.794-22.439 9.244l-8.822-8.822c-5.858-5.858-15.356-5.858-21.214 0s-5.858 15.356 0 21.214l8.822 8.822c-4.442 6.966-7.521 14.559-9.235 22.396l-12.422-.02c-8.285-.014-15.012 6.692-15.025 14.976-.014 8.284 6.691 15.011 14.976 15.024l12.48.02c1.733 7.905 4.85 15.568 9.352 22.597l-8.752 8.752c-5.858 5.858-5.858 15.356 0 21.214s15.356 5.858 21.214 0l8.759-8.759c7.021 4.49 14.674 7.6 22.569 9.328l.02 12.419c.013 8.285 6.739 14.99 15.024 14.976 4.134-.007 7.874-1.685 10.583-4.394 2.72-2.72 4.4-6.48 4.394-10.631l-.019-12.367c7.847-1.719 15.45-4.804 22.423-9.258l8.814 8.814c5.858 5.858 15.356 5.858 21.214 0s5.858-15.356 0-21.214l-8.829-8.829c4.452-6.992 7.53-14.614 9.236-22.48l12.405.02c4.151.006 7.91-1.673 10.631-4.394 2.709-2.709 4.387-6.45 4.394-10.583.013-8.284-6.692-15.011-14.976-15.024l-12.518-.02c-1.738-7.861-4.846-15.479-9.324-22.47l8.751-8.751c5.858-5.858 5.858-15.356 0-21.214-5.859-5.86-15.357-5.86-21.215-.002zm-18.077 95.506c-15.422 15.422-40.57 15.367-56.059-.122s-15.544-40.637-.122-56.059 40.57-15.367 56.059.123c15.489 15.488 15.544 40.636.122 56.058z"/></svg>